<svg xmlns="http://www.w3.org/2000/svg" xmlns:xlink="http://www.w3.org/1999/xlink" width="2000" zoomAndPan="magnify" viewBox="0 0 1500 1499.999933" height="2000" preserveAspectRatio="xMidYMid meet" version="1.0"><defs><g/><clipPath id="a2f55c4503"><path d="M 165.460938 833 L 319 833 L 319 987 L 165.460938 987 Z M 165.460938 833 " clip-rule="nonzero"/></clipPath><clipPath id="bf036e2bce"><path d="M 502 209.308594 L 1164 209.308594 L 1164 773 L 502 773 Z M 502 209.308594 " clip-rule="nonzero"/></clipPath><clipPath id="8a1ad418a6"><path d="M 431 590 L 1499.710938 590 L 1499.710938 1012 L 431 1012 Z M 431 590 " clip-rule="nonzero"/></clipPath></defs><rect x="-150" width="1800" fill="#ffffff" y="-149.999993" height="1799.99992" fill-opacity="1"/><rect x="-150" width="1800" fill="#5170ff" y="-149.999993" height="1799.99992" fill-opacity="1"/><path fill="#ffffff" d="M 1132.144531 771.882812 C 1118.5625 771.882812 1106.453125 778.226562 1098.636719 788.09375 C 1092.871094 795.332031 1089.414062 804.558594 1089.414062 814.550781 C 1089.414062 817.308594 1089.667969 820 1090.183594 822.5625 C 1090.183594 822.5625 1090.183594 822.5625 1090.183594 822.625 C 1093.960938 842.359375 1111.324219 857.285156 1132.144531 857.285156 C 1133.042969 857.285156 1133.941406 857.222656 1134.902344 857.222656 C 1157.195312 855.8125 1174.816406 837.234375 1174.816406 814.617188 C 1174.816406 802.316406 1169.5625 791.167969 1161.167969 783.351562 C 1153.542969 776.175781 1143.359375 771.882812 1132.144531 771.882812 Z M 1140.601562 788.988281 C 1124.90625 788.988281 1112.15625 801.738281 1112.15625 817.4375 C 1112.15625 828.328125 1118.308594 837.808594 1127.277344 842.550781 C 1113.824219 840.308594 1103.636719 828.582031 1103.636719 814.488281 C 1103.636719 798.792969 1116.386719 786.042969 1132.082031 786.042969 C 1136.886719 786.042969 1141.5625 787.257812 1145.535156 789.375 C 1143.933594 789.117188 1142.269531 788.988281 1140.601562 788.988281 Z M 1140.601562 788.988281 " fill-opacity="1" fill-rule="nonzero"/><g clip-path="url(#a2f55c4503)"><path fill="#ffffff" d="M 309.90625 945.890625 C 315.222656 936.089844 318.363281 925.003906 318.875 913.214844 C 318.9375 912.0625 318.9375 910.972656 318.9375 909.886719 C 318.9375 873.878906 293.953125 843.640625 260.445312 835.503906 C 260.1875 835.4375 259.933594 835.375 259.675781 835.308594 C 254.101562 834.027344 248.398438 833.386719 242.441406 833.386719 C 200.222656 833.386719 165.945312 867.664062 165.945312 909.886719 C 165.945312 952.105469 200.222656 986.382812 242.441406 986.382812 C 255.894531 986.382812 268.582031 982.921875 279.535156 976.769531 C 285.046875 973.761719 290.109375 969.980469 294.65625 965.6875 C 300.808594 960.050781 305.933594 953.324219 309.90625 945.890625 Z M 257.625 864.140625 C 256.410156 864.140625 255.191406 864.203125 254.039062 864.332031 C 253.652344 864.269531 253.269531 864.332031 252.949219 864.398438 C 226.9375 866.765625 206.628906 888.550781 206.628906 915.136719 C 206.628906 934.679688 217.582031 951.59375 233.792969 960.179688 C 209.703125 956.078125 191.445312 935.191406 191.445312 909.949219 C 191.445312 881.757812 214.253906 858.953125 242.378906 858.953125 C 245.902344 858.953125 249.296875 859.273438 252.628906 859.976562 C 252.691406 859.976562 252.691406 859.976562 252.691406 859.976562 C 257.625 861 262.238281 862.667969 266.46875 864.910156 C 263.585938 864.398438 260.636719 864.140625 257.625 864.140625 Z M 257.625 864.140625 " fill-opacity="1" fill-rule="nonzero"/></g><path fill="#ffffff" d="M 425.609375 412.402344 C 467.832031 412.402344 502.105469 378.125 502.105469 335.90625 C 502.105469 305.601562 484.425781 279.332031 458.796875 267.03125 C 458.734375 267.03125 458.734375 267.03125 458.734375 267.03125 C 448.675781 262.164062 437.527344 259.410156 425.609375 259.410156 C 383.390625 259.410156 349.113281 293.683594 349.113281 335.90625 C 349.113281 336.800781 349.113281 337.636719 349.179688 338.53125 C 350.523438 379.535156 384.289062 412.402344 425.609375 412.402344 Z M 380.507812 312.136719 C 388.515625 297.015625 403.890625 286.382812 421.894531 285.164062 L 421.957031 285.164062 C 423.175781 285.035156 424.394531 284.972656 425.609375 284.972656 C 434.257812 284.972656 442.523438 287.148438 449.699219 290.992188 C 446.753906 290.480469 443.871094 290.226562 440.730469 290.226562 C 412.539062 290.226562 389.734375 313.03125 389.734375 341.160156 C 389.734375 360.699219 400.6875 377.613281 416.898438 386.199219 C 392.808594 382.097656 374.550781 361.210938 374.550781 335.96875 C 374.613281 327.320312 376.726562 319.246094 380.507812 312.136719 Z M 380.507812 312.136719 " fill-opacity="1" fill-rule="nonzero"/><path fill="#ffffff" d="M 1004.394531 399.523438 C 999.65625 399.523438 995.167969 400.355469 991.003906 401.957031 C 976.332031 407.402344 965.890625 421.5625 965.890625 438.09375 C 965.890625 459.363281 983.1875 476.660156 1004.460938 476.660156 C 1016.566406 476.660156 1027.394531 471.085938 1034.441406 462.308594 C 1039.761719 455.648438 1042.964844 447.253906 1042.964844 438.09375 C 1042.964844 416.820312 1025.664062 399.523438 1004.394531 399.523438 Z M 1012.082031 415.027344 C 1008.945312 415.027344 1005.804688 415.605469 1003.050781 416.695312 C 993.3125 420.28125 986.390625 429.699219 986.390625 440.71875 C 986.390625 450.523438 991.964844 459.105469 1000.101562 463.398438 C 987.929688 461.347656 978.769531 450.84375 978.769531 438.09375 C 978.769531 425.40625 987.929688 414.835938 999.976562 412.785156 C 1001.449219 412.53125 1002.921875 412.402344 1004.460938 412.402344 C 1008.816406 412.402344 1012.980469 413.492188 1016.632812 415.414062 C 1015.09375 415.15625 1013.621094 415.027344 1012.082031 415.027344 Z M 1012.082031 415.027344 " fill-opacity="1" fill-rule="nonzero"/><path fill="#ffffff" d="M 1436.335938 1005.089844 C 1419.039062 997.207031 1397.386719 988.75 1371.695312 981.128906 C 1346.066406 973.503906 1316.402344 967.03125 1283.535156 962.742188 C 1250.605469 958.511719 1214.535156 956.589844 1176.289062 958.320312 C 1146.304688 959.730469 1114.976562 963.253906 1083.199219 969.210938 C 1081.597656 969.53125 1080.058594 969.789062 1078.394531 970.109375 C 1074.355469 970.878906 1070.257812 971.710938 1066.21875 972.605469 C 1065.578125 972.734375 1064.9375 972.925781 1064.296875 973.054688 C 1061.929688 973.503906 1059.558594 974.082031 1057.1875 974.59375 C 1047 976.898438 1036.683594 979.140625 1026.5 982.21875 C 1021.4375 983.625 1016.3125 985.101562 1011.121094 986.507812 C 1005.996094 988.046875 1000.9375 989.777344 995.808594 991.378906 C 990.683594 993.042969 985.558594 994.644531 980.371094 996.3125 C 975.246094 998.042969 970.183594 999.964844 965.121094 1001.757812 C 959.996094 1003.679688 954.933594 1005.601562 949.808594 1007.460938 C 944.75 1009.445312 939.75 1011.625 934.691406 1013.738281 C 925.078125 1017.773438 915.339844 1021.8125 905.601562 1025.847656 L 890.933594 1031.871094 L 887.28125 1033.40625 L 883.882812 1034.625 L 877.09375 1037.121094 L 863.445312 1042.183594 C 858.960938 1043.914062 853.964844 1045.195312 849.289062 1046.734375 L 835 1051.21875 C 830.195312 1052.691406 825.390625 1053.78125 820.523438 1055.0625 C 782.082031 1065.632812 742.742188 1071.71875 703.984375 1073.960938 C 694.246094 1074.28125 684.570312 1074.539062 674.960938 1074.472656 C 670.15625 1074.347656 665.351562 1074.28125 660.546875 1074.152344 L 653.371094 1073.960938 L 646.257812 1073.449219 C 641.519531 1073.128906 636.777344 1072.746094 632.035156 1072.425781 C 627.292969 1072.105469 622.683594 1071.269531 617.941406 1070.757812 C 613.328125 1070.117188 608.585938 1069.734375 604.039062 1068.964844 L 590.265625 1066.59375 C 553.679688 1060.1875 519.085938 1049.359375 487.4375 1035.839844 C 463.089844 1025.527344 440.410156 1013.675781 419.84375 1000.925781 C 417.539062 999.515625 415.296875 998.105469 413.054688 996.695312 C 409.210938 994.199219 405.429688 991.699219 401.777344 989.199219 C 399.023438 987.277344 396.203125 985.355469 393.511719 983.433594 C 391.140625 981.769531 388.898438 980.167969 386.65625 978.4375 C 367.757812 964.535156 351.164062 950.121094 336.878906 936.152344 C 335.597656 934.933594 334.378906 933.78125 333.226562 932.566406 C 331.304688 944.609375 327.140625 955.820312 321.179688 965.945312 C 328.867188 976.449219 337.582031 987.148438 347.257812 997.914062 C 349.242188 1000.15625 351.355469 1002.335938 353.40625 1004.578125 C 355.265625 1006.5 357.121094 1008.484375 359.042969 1010.40625 C 360.964844 1012.394531 362.953125 1014.378906 365.003906 1016.363281 C 367.695312 1019.054688 370.449219 1021.683594 373.265625 1024.375 C 397.871094 1047.308594 427.339844 1069.414062 461.296875 1088.570312 C 495.25 1107.597656 533.628906 1123.804688 575.273438 1134.25 C 580.460938 1135.53125 585.714844 1136.8125 590.96875 1138.09375 C 596.222656 1139.375 601.605469 1140.207031 606.921875 1141.230469 C 612.304688 1142.128906 617.621094 1143.347656 623.128906 1143.988281 C 628.574219 1144.691406 634.023438 1145.398438 639.46875 1146.101562 L 647.730469 1147.125 L 655.996094 1147.765625 C 661.507812 1148.214844 667.082031 1148.664062 672.65625 1149.046875 C 683.800781 1149.496094 695.078125 1149.5625 706.289062 1149.625 C 751.394531 1148.984375 796.816406 1142 840.703125 1130.40625 C 846.148438 1128.867188 851.722656 1127.523438 857.105469 1125.792969 L 873.25 1120.539062 C 878.632812 1118.746094 883.949219 1117.207031 889.394531 1115.09375 L 905.605469 1108.941406 L 913.738281 1105.804688 L 917.777344 1104.265625 L 921.429688 1102.664062 L 935.90625 1096.128906 C 945.582031 1091.773438 955.191406 1087.414062 964.800781 1083.058594 C 969.351562 1080.945312 973.898438 1078.832031 978.449219 1076.84375 L 992.222656 1071.144531 C 996.835938 1069.222656 1001.382812 1067.296875 1005.933594 1065.3125 C 1010.546875 1063.582031 1015.160156 1061.789062 1019.707031 1060.058594 C 1024.257812 1058.328125 1028.804688 1056.472656 1033.417969 1054.871094 C 1038.09375 1053.332031 1042.644531 1051.730469 1047.191406 1050.191406 C 1051.804688 1048.65625 1056.289062 1046.925781 1060.902344 1045.515625 C 1065.515625 1044.105469 1070.066406 1042.695312 1074.613281 1041.289062 C 1111.195312 1030.203125 1147.265625 1021.9375 1181.992188 1016.429688 C 1216.714844 1010.984375 1250.03125 1008.292969 1281.039062 1007.585938 C 1311.984375 1006.820312 1340.621094 1008.035156 1365.929688 1010.472656 C 1391.296875 1012.90625 1413.402344 1016.363281 1431.53125 1019.824219 C 1449.664062 1023.414062 1463.949219 1026.742188 1473.625 1029.5625 C 1482.660156 1032.125 1487.71875 1033.792969 1488.359375 1033.984375 C 1487.847656 1033.597656 1483.554688 1030.394531 1475.417969 1025.460938 C 1466.640625 1020.402344 1453.699219 1012.839844 1436.335938 1005.089844 Z M 1436.335938 1005.089844 " fill-opacity="1" fill-rule="nonzero"/><path fill="#ffffff" d="M 869.214844 1174.289062 C 863.640625 1175.574219 857.425781 1177.046875 850.761719 1178.648438 C 843.96875 1179.929688 836.667969 1181.273438 828.851562 1182.746094 C 821.035156 1184.222656 812.769531 1185.757812 803.992188 1187.488281 C 795.28125 1189.15625 785.988281 1190.179688 776.378906 1191.652344 C 771.574219 1192.359375 766.707031 1193.0625 761.707031 1193.765625 C 756.710938 1194.535156 751.648438 1195.304688 746.460938 1195.5625 C 736.082031 1196.457031 725.382812 1197.417969 714.363281 1198.378906 C 708.917969 1199.019531 703.277344 1198.957031 697.640625 1199.214844 C 692.003906 1199.339844 686.238281 1199.535156 680.46875 1199.660156 C 677.585938 1199.726562 674.703125 1199.789062 671.757812 1199.855469 C 668.875 1200.046875 665.925781 1199.980469 663.042969 1199.789062 C 657.214844 1199.597656 651.257812 1199.339844 645.296875 1199.148438 C 639.339844 1198.828125 633.316406 1198.894531 627.292969 1198.253906 C 621.273438 1197.675781 615.25 1196.972656 609.164062 1196.332031 C 606.152344 1196.011719 603.140625 1195.691406 600.066406 1195.371094 C 597.054688 1195.050781 593.980469 1194.792969 590.96875 1194.089844 C 584.945312 1193 578.859375 1191.910156 572.773438 1190.820312 L 563.613281 1189.15625 C 560.601562 1188.640625 557.589844 1187.617188 554.578125 1186.847656 C 548.621094 1185.3125 542.535156 1183.710938 536.511719 1182.105469 C 530.359375 1180.761719 524.660156 1178.261719 518.765625 1176.277344 C 512.933594 1174.164062 506.914062 1172.304688 501.210938 1169.933594 L 484.105469 1162.375 C 481.285156 1161.09375 478.339844 1160.003906 475.582031 1158.53125 L 467.445312 1154.046875 C 462 1151.035156 456.492188 1148.214844 451.171875 1145.078125 C 445.984375 1141.746094 440.792969 1138.414062 435.605469 1135.019531 C 430.289062 1131.878906 425.546875 1127.96875 420.675781 1124.320312 L 413.375 1118.871094 L 409.722656 1116.183594 C 408.570312 1115.222656 407.414062 1114.195312 406.261719 1113.234375 C 401.714844 1109.261719 397.164062 1105.289062 392.679688 1101.382812 C 388.195312 1097.472656 384.160156 1093.117188 379.867188 1089.015625 C 377.753906 1086.96875 375.703125 1084.917969 373.589844 1082.867188 C 371.472656 1080.753906 369.679688 1078.511719 367.757812 1076.332031 C 363.851562 1071.976562 360.003906 1067.683594 356.226562 1063.453125 C 349.179688 1054.484375 341.9375 1045.898438 335.789062 1036.867188 C 334.121094 1034.625 332.519531 1032.316406 330.917969 1030.074219 C 328.355469 1026.488281 325.859375 1022.898438 323.550781 1019.25 C 316.375 1008.355469 309.90625 997.53125 304.074219 987.085938 C 299.011719 991.890625 293.503906 996.121094 287.546875 999.707031 C 288.570312 1002.207031 289.789062 1004.703125 290.941406 1007.203125 C 293.183594 1011.945312 295.167969 1016.878906 297.730469 1021.683594 C 300.808594 1027.703125 304.011719 1033.917969 307.535156 1040.070312 C 308.6875 1042.183594 309.90625 1044.296875 311.1875 1046.476562 C 312.082031 1048.015625 313.042969 1049.617188 314.070312 1051.152344 C 319.769531 1061.339844 326.945312 1070.886719 333.800781 1081.007812 C 337.519531 1085.878906 341.363281 1090.746094 345.269531 1095.617188 C 347.191406 1098.050781 349.113281 1100.550781 351.226562 1102.921875 C 353.34375 1105.289062 355.457031 1107.597656 357.636719 1109.96875 C 374.421875 1129.25 394.601562 1146.804688 416.511719 1162.566406 C 422.085938 1166.347656 427.726562 1170.191406 433.363281 1173.972656 C 439.128906 1177.558594 445.214844 1180.761719 451.171875 1184.15625 L 460.144531 1189.089844 C 463.152344 1190.757812 466.359375 1191.972656 469.433594 1193.449219 L 488.203125 1201.90625 C 494.546875 1204.53125 501.144531 1206.515625 507.554688 1208.824219 C 514.085938 1210.9375 520.429688 1213.628906 527.09375 1214.972656 C 533.691406 1216.640625 540.292969 1218.242188 546.890625 1219.90625 C 550.15625 1220.613281 553.425781 1221.636719 556.757812 1222.148438 L 566.6875 1223.6875 C 573.285156 1224.710938 579.886719 1225.800781 586.484375 1226.828125 C 589.75 1227.402344 593.019531 1227.59375 596.351562 1227.851562 C 599.617188 1228.042969 602.886719 1228.300781 606.152344 1228.492188 C 612.6875 1228.941406 619.160156 1229.390625 625.628906 1229.773438 C 632.035156 1230.222656 638.441406 1229.710938 644.785156 1229.710938 C 657.40625 1229.453125 669.898438 1229.644531 681.878906 1228.042969 C 687.902344 1227.46875 693.859375 1226.890625 699.753906 1226.3125 C 705.585938 1225.671875 711.480469 1225.289062 717.117188 1224.136719 C 728.394531 1222.148438 739.414062 1220.164062 750.046875 1218.304688 C 755.367188 1217.410156 760.492188 1216.0625 765.488281 1214.71875 C 770.550781 1213.4375 775.484375 1212.21875 780.289062 1210.9375 C 785.09375 1209.71875 789.832031 1208.503906 794.445312 1207.351562 C 799.058594 1206.070312 803.609375 1205.109375 807.835938 1203.570312 C 816.421875 1200.6875 824.621094 1197.933594 832.246094 1195.304688 C 839.871094 1192.679688 847.046875 1190.4375 853.582031 1188 C 859.988281 1185.3125 865.882812 1182.8125 871.261719 1180.632812 C 881.960938 1176.277344 890.164062 1172.496094 895.867188 1170.0625 C 900.796875 1167.882812 903.746094 1166.601562 904.386719 1166.28125 C 903.617188 1166.410156 900.542969 1167.117188 895.226562 1168.203125 C 889.203125 1169.871094 880.359375 1171.664062 869.214844 1174.289062 Z M 869.214844 1174.289062 " fill-opacity="1" fill-rule="nonzero"/><g clip-path="url(#bf036e2bce)"><path fill="#ffffff" d="M 983.1875 392.476562 C 989.917969 389.851562 997.21875 388.441406 1004.84375 388.441406 C 1038.160156 388.441406 1065.066406 415.414062 1065.066406 448.664062 C 1065.066406 464.746094 1058.789062 479.351562 1048.539062 490.179688 C 1078.585938 550.785156 1095.433594 619.019531 1095.433594 691.222656 C 1095.433594 719.09375 1092.9375 746.320312 1088.066406 772.78125 C 1098.894531 763.8125 1112.796875 758.492188 1127.980469 758.492188 C 1136.566406 758.492188 1144.765625 760.222656 1152.261719 763.363281 C 1159.566406 731.074219 1163.476562 697.5 1163.476562 662.96875 C 1163.476562 412.464844 960.382812 209.308594 709.8125 209.308594 C 635.109375 209.308594 564.636719 227.375 502.425781 259.34375 C 546.3125 245.121094 593.148438 237.496094 641.773438 237.496094 C 777.980469 237.5625 900.09375 297.527344 983.1875 392.476562 Z M 983.1875 392.476562 " fill-opacity="1" fill-rule="nonzero"/></g><path fill="#ffffff" d="M 239.6875 674.050781 C 240.199219 674.246094 240.777344 674.4375 241.417969 674.628906 C 242.699219 675.015625 244.300781 675.460938 246.15625 675.910156 C 247.953125 676.359375 250.066406 676.808594 252.308594 677.257812 C 256.792969 678.152344 262.046875 678.921875 267.683594 679.433594 C 270.503906 679.691406 273.386719 679.882812 276.332031 680.011719 C 276.972656 680.011719 277.679688 680.074219 278.382812 680.074219 C 278.382812 682.445312 278.449219 684.816406 278.511719 687.1875 C 278.640625 691.800781 278.832031 696.285156 279.089844 700.703125 C 279.601562 709.480469 280.371094 717.617188 281.265625 724.601562 C 281.714844 728.125 282.164062 731.328125 282.613281 734.148438 C 283.0625 736.96875 283.507812 739.464844 283.894531 741.515625 C 284.085938 742.539062 284.277344 743.4375 284.46875 744.269531 C 284.664062 745.039062 284.789062 745.746094 284.917969 746.257812 C 285.175781 747.347656 285.304688 747.921875 285.304688 747.921875 C 285.304688 747.921875 285.429688 747.347656 285.6875 746.257812 C 285.816406 745.679688 285.945312 745.039062 286.136719 744.269531 C 286.328125 743.5 286.519531 742.539062 286.710938 741.515625 C 287.097656 739.464844 287.546875 736.96875 287.992188 734.148438 C 288.441406 731.328125 288.890625 728.0625 289.339844 724.601562 C 290.234375 717.617188 291.003906 709.417969 291.519531 700.703125 C 291.773438 696.347656 291.964844 691.800781 292.09375 687.1875 C 292.160156 684.816406 292.222656 682.445312 292.222656 680.074219 C 295.875 679.945312 299.460938 679.753906 302.921875 679.433594 C 308.558594 678.921875 313.75 678.152344 318.296875 677.257812 C 320.539062 676.808594 322.589844 676.359375 324.449219 675.910156 C 326.242188 675.460938 327.84375 675.015625 329.1875 674.628906 C 329.828125 674.4375 330.40625 674.246094 330.917969 674.050781 C 331.429688 673.859375 331.878906 673.730469 332.199219 673.605469 C 332.90625 673.347656 333.289062 673.21875 333.289062 673.21875 C 333.289062 673.21875 332.90625 673.089844 332.199219 672.835938 C 331.878906 672.707031 331.429688 672.578125 330.917969 672.386719 C 330.40625 672.195312 329.828125 672.003906 329.1875 671.808594 C 327.90625 671.425781 326.304688 670.976562 324.449219 670.527344 C 322.65625 670.082031 320.539062 669.632812 318.296875 669.183594 C 313.8125 668.285156 308.558594 667.582031 302.921875 667.003906 C 299.460938 666.683594 295.875 666.492188 292.222656 666.363281 C 292.09375 659.316406 291.902344 652.398438 291.453125 645.800781 C 290.941406 637.023438 290.171875 628.886719 289.273438 621.902344 C 288.828125 618.378906 288.378906 615.175781 287.929688 612.355469 C 287.480469 609.535156 287.03125 607.039062 286.648438 604.988281 C 286.457031 603.964844 286.265625 603.066406 286.070312 602.234375 C 285.878906 601.464844 285.75 600.757812 285.625 600.246094 C 285.367188 599.15625 285.238281 598.582031 285.238281 598.582031 C 285.238281 598.582031 285.109375 599.15625 284.855469 600.246094 C 284.726562 600.824219 284.597656 601.464844 284.40625 602.234375 C 284.214844 603.003906 284.023438 603.964844 283.828125 604.988281 C 283.445312 607.039062 282.996094 609.535156 282.546875 612.355469 C 282.101562 615.175781 281.652344 618.441406 281.203125 621.902344 C 280.304688 628.886719 279.601562 637.085938 279.023438 645.800781 C 278.640625 652.398438 278.382812 659.382812 278.253906 666.363281 C 277.550781 666.363281 276.910156 666.429688 276.207031 666.429688 C 273.257812 666.558594 270.375 666.75 267.554688 667.003906 C 261.917969 667.519531 256.730469 668.285156 252.179688 669.183594 C 249.9375 669.632812 247.886719 670.082031 246.03125 670.527344 C 244.234375 670.976562 242.632812 671.425781 241.289062 671.808594 C 240.648438 672.003906 240.070312 672.195312 239.558594 672.386719 C 239.046875 672.578125 238.597656 672.707031 238.277344 672.835938 C 237.574219 673.089844 237.1875 673.21875 237.1875 673.21875 C 237.1875 673.21875 237.574219 673.347656 238.277344 673.605469 C 238.726562 673.730469 239.175781 673.925781 239.6875 674.050781 Z M 239.6875 674.050781 " fill-opacity="1" fill-rule="nonzero"/><path fill="#ffffff" d="M 1066.859375 606.011719 C 1066.347656 605.820312 1065.773438 605.628906 1065.132812 605.4375 C 1063.851562 605.050781 1062.25 604.605469 1060.390625 604.15625 C 1058.597656 603.707031 1056.480469 603.257812 1054.238281 602.808594 C 1049.753906 601.914062 1044.5 601.207031 1038.863281 600.632812 C 1035.402344 600.3125 1031.816406 600.117188 1028.164062 599.992188 C 1028.035156 592.945312 1027.84375 586.023438 1027.394531 579.425781 C 1026.882812 570.648438 1026.113281 562.511719 1025.21875 555.527344 C 1024.769531 552.003906 1024.320312 548.800781 1023.871094 545.980469 C 1023.421875 543.164062 1022.976562 540.664062 1022.589844 538.613281 C 1022.398438 537.589844 1022.207031 536.691406 1022.015625 535.859375 C 1021.820312 535.089844 1021.695312 534.386719 1021.566406 533.875 C 1021.308594 532.785156 1021.179688 532.207031 1021.179688 532.207031 C 1021.179688 532.207031 1021.054688 532.785156 1020.796875 533.875 C 1020.667969 534.449219 1020.539062 535.089844 1020.347656 535.859375 C 1020.15625 536.628906 1019.964844 537.589844 1019.773438 538.613281 C 1019.386719 540.664062 1018.9375 543.164062 1018.492188 545.980469 C 1018.042969 548.800781 1017.59375 552.003906 1017.144531 555.527344 C 1016.25 562.511719 1015.542969 570.710938 1014.964844 579.425781 C 1014.582031 586.023438 1014.324219 593.007812 1014.199219 599.992188 C 1013.492188 599.992188 1012.851562 600.054688 1012.148438 600.054688 C 1009.199219 600.183594 1006.316406 600.375 1003.5 600.632812 C 997.859375 601.144531 992.671875 601.914062 988.121094 602.808594 C 985.878906 603.257812 983.828125 603.707031 981.972656 604.15625 C 980.179688 604.605469 978.578125 605.050781 977.230469 605.4375 C 976.589844 605.628906 976.015625 605.820312 975.5 606.011719 C 974.988281 606.207031 974.539062 606.332031 974.21875 606.460938 C 973.515625 606.71875 973.128906 606.847656 973.128906 606.847656 C 973.128906 606.847656 973.515625 606.972656 974.21875 607.230469 C 974.539062 607.359375 974.988281 607.488281 975.5 607.679688 C 976.015625 607.871094 976.589844 608.0625 977.230469 608.253906 C 978.511719 608.640625 980.113281 609.089844 981.972656 609.535156 C 983.765625 609.984375 985.878906 610.433594 988.121094 610.882812 C 992.605469 611.777344 997.859375 612.546875 1003.5 613.0625 C 1006.316406 613.316406 1009.199219 613.507812 1012.148438 613.636719 C 1012.789062 613.636719 1013.492188 613.703125 1014.199219 613.703125 C 1014.261719 616.070312 1014.261719 618.441406 1014.324219 620.8125 C 1014.453125 625.425781 1014.644531 629.910156 1014.902344 634.332031 C 1015.414062 643.109375 1016.183594 651.246094 1017.082031 658.226562 C 1017.53125 661.75 1017.976562 664.957031 1018.425781 667.773438 C 1018.875 670.59375 1019.324219 673.089844 1019.707031 675.140625 C 1019.898438 676.167969 1020.09375 677.0625 1020.285156 677.898438 C 1020.476562 678.664062 1020.605469 679.371094 1020.734375 679.882812 C 1020.988281 680.972656 1021.117188 681.546875 1021.117188 681.546875 C 1021.117188 681.546875 1021.246094 680.972656 1021.5 679.882812 C 1021.628906 679.304688 1021.757812 678.664062 1021.949219 677.898438 C 1022.140625 677.128906 1022.335938 676.167969 1022.527344 675.140625 C 1022.910156 673.089844 1023.359375 670.59375 1023.808594 667.773438 C 1024.257812 664.957031 1024.703125 661.75 1025.152344 658.226562 C 1026.050781 651.246094 1026.820312 643.042969 1027.332031 634.332031 C 1027.589844 629.972656 1027.78125 625.425781 1027.910156 620.8125 C 1027.972656 618.441406 1028.035156 616.070312 1028.035156 613.703125 C 1031.6875 613.574219 1035.277344 613.382812 1038.734375 613.0625 C 1044.375 612.546875 1049.5625 611.777344 1054.113281 610.882812 C 1056.355469 610.433594 1058.402344 609.984375 1060.261719 609.535156 C 1062.054688 609.089844 1063.65625 608.640625 1065.003906 608.253906 C 1065.644531 608.0625 1066.21875 607.871094 1066.734375 607.679688 C 1067.246094 607.488281 1067.695312 607.359375 1068.015625 607.230469 C 1068.71875 606.972656 1069.105469 606.847656 1069.105469 606.847656 C 1069.105469 606.847656 1068.71875 606.71875 1068.015625 606.460938 C 1067.820312 606.332031 1067.375 606.207031 1066.859375 606.011719 Z M 1066.859375 606.011719 " fill-opacity="1" fill-rule="nonzero"/><path fill="#ffffff" d="M 743.257812 601.71875 C 769.074219 600.953125 791.242188 600.953125 805.273438 589.164062 C 812.449219 583.140625 823.40625 577.632812 836.15625 573.980469 L 835.386719 430.40625 L 678.933594 372.359375 L 370.0625 446.164062 L 369.039062 562.253906 L 377.878906 455.007812 L 671.566406 404.839844 L 673.039062 477.171875 L 411.835938 517.023438 L 673.101562 506.707031 L 671.886719 866.253906 L 671.820312 876.3125 C 682.074219 884.769531 693.15625 895.339844 700.585938 906.425781 C 700.585938 906.425781 707.890625 902.070312 718.589844 898.480469 L 715.707031 881.246094 L 690.335938 727.996094 C 690.273438 727.484375 690.015625 727.035156 689.566406 726.714844 C 686.878906 724.792969 676.050781 716.144531 676.691406 702.433594 C 676.625 702.5 676.5625 702.5 676.5 702.5 C 675.152344 695.578125 677.523438 688.597656 679.507812 681.804688 C 680.917969 677.191406 682.136719 672.449219 682.007812 667.582031 C 681.945312 666.042969 681.816406 664.570312 681.625 663.03125 C 681.433594 662.390625 681.304688 661.6875 681.238281 661.046875 L 681.175781 660.277344 C 680.917969 658.292969 680.597656 656.179688 680.597656 654.128906 C 679.828125 619.402344 717.4375 602.425781 743.257812 601.71875 Z M 743.257812 601.71875 " fill-opacity="1" fill-rule="nonzero"/><path fill="#ffffff" d="M 468.085938 864.71875 C 469.753906 863.371094 471.484375 862.089844 473.210938 860.875 C 434.003906 838.386719 405.878906 778.675781 405.878906 708.519531 C 405.878906 619.082031 451.492188 546.558594 507.746094 546.558594 C 563.996094 546.558594 609.613281 619.082031 609.613281 708.519531 C 609.613281 760.863281 593.980469 807.441406 569.699219 837.105469 C 577.769531 837.488281 585.777344 838.511719 593.789062 840.050781 C 619.222656 808.402344 635.429688 761.25 635.429688 708.585938 C 635.429688 613.445312 582.703125 536.308594 517.738281 536.308594 C 452.710938 536.308594 399.984375 613.445312 399.984375 708.585938 C 400.046875 777.648438 427.917969 837.296875 468.085938 864.71875 Z M 468.085938 864.71875 " fill-opacity="1" fill-rule="nonzero"/><path fill="#ffffff" d="M 555.15625 666.429688 C 557.398438 665.53125 559.703125 665.082031 562.136719 665.082031 C 565.855469 665.082031 569.441406 666.171875 572.644531 668.222656 C 574.886719 669.566406 576.9375 671.363281 578.796875 673.539062 C 569.828125 629.207031 540.226562 596.660156 505.246094 596.660156 C 463.027344 596.660156 428.8125 643.75 428.8125 701.859375 C 428.8125 759.96875 463.027344 806.992188 505.246094 806.992188 C 519.980469 806.992188 533.820312 801.226562 545.480469 791.230469 C 550.863281 786.621094 555.796875 781.171875 560.152344 774.894531 C 565.855469 766.054688 570.53125 755.160156 573.605469 742.925781 C 570.148438 745.359375 566.238281 746.707031 562.136719 746.707031 C 559.511719 746.707031 557.011719 746.128906 554.640625 745.101562 C 543.238281 740.234375 534.84375 724.539062 534.84375 705.832031 C 534.84375 686.929688 543.429688 671.042969 555.15625 666.429688 Z M 508.707031 796.871094 C 507.296875 797.0625 505.886719 797.125 504.476562 797.125 C 473.726562 797.125 448.738281 755.867188 448.738281 704.933594 C 448.738281 654 473.726562 612.675781 504.476562 612.675781 C 509.089844 612.675781 513.640625 613.574219 517.933594 615.429688 C 489.164062 619.019531 466.421875 658.804688 466.421875 707.367188 C 466.421875 750.613281 484.425781 786.941406 508.707031 796.871094 Z M 508.707031 796.871094 " fill-opacity="1" fill-rule="nonzero"/><g clip-path="url(#8a1ad418a6)"><path fill="#ffffff" d="M 1128.492188 907.320312 C 1125.226562 908.347656 1121.960938 909.308594 1118.753906 910.332031 C 1115.617188 911.488281 1112.476562 912.574219 1109.464844 913.664062 C 1103.378906 915.972656 1097.421875 917.894531 1091.976562 920.328125 C 1080.957031 925.132812 1070.832031 929.296875 1062.3125 933.972656 C 1057.121094 936.601562 1052.316406 939.097656 1048.023438 941.46875 C 1046.359375 940.378906 1044.566406 939.355469 1042.835938 938.394531 C 1038.609375 936.023438 1034.121094 933.78125 1029.574219 931.796875 C 1025.089844 929.617188 1020.347656 927.824219 1015.671875 926.222656 C 1010.867188 924.492188 1005.996094 923.082031 1001.0625 921.929688 C 996.066406 920.777344 991.003906 919.941406 985.816406 919.300781 C 980.691406 918.789062 975.566406 918.277344 970.246094 918.339844 C 968.773438 918.277344 967.238281 918.277344 965.699219 918.339844 C 962.109375 918.40625 958.394531 918.789062 954.613281 918.980469 C 949.425781 919.75 944.171875 920.328125 939.046875 921.609375 C 938.917969 921.609375 938.855469 921.671875 938.726562 921.671875 C 935.457031 922.378906 932.191406 923.339844 928.988281 924.429688 L 970.054688 748.179688 C 970.121094 747.859375 970.246094 747.601562 970.441406 747.410156 C 973.128906 744.460938 991.839844 722.167969 966.148438 691.671875 C 938.597656 658.867188 966.46875 662.007812 964.480469 646.375 C 963.648438 639.96875 957.820312 630.039062 949.296875 620.300781 C 936.996094 606.398438 918.929688 592.878906 902.078125 591.019531 C 888.113281 589.484375 874.210938 590.445312 861.910156 593.070312 C 848.902344 595.828125 837.757812 600.375 830.195312 605.757812 C 815.523438 616.199219 793.421875 614.855469 767.601562 613.957031 C 741.785156 613.058594 703.214844 626.964844 701.996094 660.148438 C 701.933594 662.070312 702.0625 664.121094 702.253906 666.042969 L 702.253906 666.8125 C 702.316406 667.453125 702.382812 668.09375 702.511719 668.734375 C 702.574219 670.207031 702.703125 671.617188 702.636719 673.089844 C 702.511719 677.703125 700.972656 682.1875 699.304688 686.480469 C 696.871094 692.761719 694.117188 699.359375 695.078125 706.023438 L 695.269531 706.023438 C 693.859375 719.027344 704.113281 727.871094 706.738281 729.917969 C 707.121094 730.238281 707.378906 730.6875 707.441406 731.136719 L 724.550781 884.257812 L 725.894531 896.300781 L 727.558594 911.039062 C 725.316406 911.679688 723.269531 912.511719 721.152344 913.28125 C 720.066406 913.730469 718.976562 914.113281 717.886719 914.433594 L 703.984375 919.367188 C 701.355469 920.585938 698.730469 921.867188 696.039062 923.082031 C 695.398438 921.992188 694.628906 920.839844 694.054688 919.816406 C 689.570312 913.152344 684.828125 906.679688 679.832031 900.46875 C 677.265625 897.457031 674.640625 894.378906 671.949219 891.433594 C 666.824219 885.859375 661.378906 880.476562 655.484375 875.480469 C 651.898438 872.40625 648.179688 869.457031 644.273438 866.703125 C 630.691406 856.964844 614.867188 849.085938 597.503906 845.367188 C 595.261719 844.855469 593.019531 844.40625 590.710938 844.085938 C 588.214844 843.703125 585.714844 843.382812 583.214844 843.191406 C 579.179688 842.871094 575.207031 842.679688 571.109375 842.871094 C 568.992188 842.871094 566.878906 843 564.699219 843.191406 C 558.039062 843.765625 551.503906 845.046875 545.097656 846.585938 C 540.996094 847.867188 536.769531 848.828125 532.859375 850.496094 L 526.964844 852.863281 L 525.554688 853.503906 L 523.3125 854.53125 L 520.878906 855.8125 C 514.855469 859.144531 509.347656 861.386719 502.492188 866.125 C 501.914062 866.511719 501.273438 866.960938 500.699219 867.472656 C 499.671875 868.242188 498.582031 868.882812 497.558594 869.652344 C 494.933594 871.445312 492.304688 873.175781 490.0625 875.160156 L 489.484375 875.738281 L 480.644531 883.875 C 478.785156 885.410156 477.183594 887.398438 475.648438 889.382812 C 474.496094 890.855469 473.339844 892.265625 472.1875 893.738281 C 470.90625 895.40625 469.433594 897.007812 468.214844 898.867188 L 464.882812 904.566406 L 461.617188 910.269531 C 460.589844 912.191406 459.824219 914.242188 458.988281 916.292969 C 457.324219 920.390625 455.660156 924.429688 454.699219 928.65625 C 453.542969 932.886719 452.582031 937.113281 452.199219 941.40625 L 451.492188 947.8125 C 451.429688 948.582031 451.429688 949.222656 451.429688 949.925781 C 451.367188 951.335938 451.367188 952.683594 451.367188 954.089844 L 451.367188 954.21875 C 451.171875 962.484375 452.390625 970.558594 453.800781 978.5 C 446.816406 977.605469 439.769531 977.089844 432.722656 977.15625 C 432.402344 977.15625 432.144531 977.21875 431.824219 977.21875 C 440.792969 989.839844 455.851562 1005.089844 469.242188 1010.40625 C 475.902344 1013.226562 483.785156 1010.34375 486.921875 1003.679688 C 488.460938 1000.414062 488.589844 996.761719 487.5 993.492188 L 486.921875 991.828125 C 486.21875 989.714844 485.128906 986.253906 484.488281 983.304688 C 483.65625 980.296875 483.207031 977.15625 482.695312 974.015625 C 482.117188 968.441406 481.667969 962.804688 482.054688 957.359375 C 482.054688 956.71875 482.117188 956.011719 482.183594 955.371094 C 482.246094 954.988281 482.246094 954.605469 482.246094 954.21875 C 482.308594 953.066406 482.4375 951.976562 482.566406 950.824219 L 483.078125 948.195312 L 483.398438 946.339844 C 483.71875 943.328125 484.808594 940.574219 485.640625 937.816406 C 486.347656 934.933594 487.757812 932.371094 488.972656 929.683594 C 489.613281 928.335938 490.125 926.992188 490.832031 925.710938 L 493.328125 922.058594 L 495.699219 918.40625 C 496.597656 917.253906 497.6875 916.226562 498.710938 915.074219 C 500.121094 913.730469 501.273438 912.0625 502.621094 910.71875 C 503.261719 909.949219 503.964844 909.308594 504.863281 908.730469 L 511.910156 902.902344 C 514.28125 901.109375 516.90625 899.890625 519.277344 898.226562 C 523.378906 895.019531 531.195312 891.945312 537.535156 888.871094 L 539.90625 887.847656 L 539.972656 887.847656 L 540.035156 887.78125 L 540.226562 887.71875 L 541.316406 887.332031 L 545.671875 885.859375 C 548.554688 884.707031 551.503906 884.195312 554.386719 883.359375 C 560.214844 882.207031 566.046875 881.246094 571.8125 881.4375 C 577.515625 881.4375 583.214844 882.207031 588.855469 883.679688 C 600.003906 886.4375 610.765625 892.074219 620.632812 899.632812 C 630.5 907.195312 639.53125 916.546875 647.925781 926.734375 C 649.269531 928.402344 650.613281 930.195312 651.898438 931.988281 C 653.5625 934.167969 655.164062 936.410156 656.703125 938.652344 C 657.664062 939.996094 658.558594 941.40625 659.457031 942.75 C 662.082031 946.660156 664.644531 951.015625 666.761719 954.988281 C 667.207031 955.820312 667.65625 956.652344 668.042969 957.421875 C 668.363281 958.0625 668.808594 958.703125 669.066406 959.34375 C 674.128906 969.597656 686.429688 973.953125 696.808594 969.210938 L 697.703125 968.761719 L 720.191406 958.511719 L 723.652344 957.359375 L 731.789062 954.667969 C 732.429688 954.476562 733.070312 954.21875 733.710938 954.027344 C 736.851562 952.875 740.054688 951.59375 743.320312 951.144531 L 754.917969 948.582031 C 758.761719 947.429688 762.605469 947.300781 766.449219 946.789062 C 770.292969 946.46875 774.203125 945.507812 778.046875 945.761719 L 789.511719 945.761719 C 793.292969 946.082031 797.007812 946.660156 800.726562 947.042969 C 804.570312 947.238281 808.09375 948.582031 811.808594 949.285156 C 815.523438 949.925781 818.984375 951.273438 822.507812 952.488281 C 826.160156 953.644531 829.554688 955.179688 832.949219 956.847656 C 833.398438 956.976562 833.847656 957.167969 834.234375 957.421875 C 837.242188 958.703125 840.0625 960.5 842.945312 962.101562 C 845.765625 963.574219 848.261719 965.558594 850.824219 967.289062 C 851.273438 967.675781 851.785156 967.996094 852.300781 968.316406 C 855.183594 970.75 858.320312 972.992188 861.011719 975.488281 C 862.421875 976.707031 863.703125 977.988281 864.921875 979.335938 C 865.5625 979.910156 866.203125 980.617188 866.714844 981.128906 L 868.058594 982.539062 L 869.46875 984.203125 C 876.515625 991.957031 888.496094 992.660156 896.378906 985.804688 C 899.582031 983.113281 902.65625 980.230469 905.859375 977.539062 C 909.191406 975.105469 912.332031 972.285156 915.726562 970.042969 C 919.121094 967.675781 922.515625 965.429688 926.105469 963.507812 C 929.566406 961.265625 933.34375 959.792969 936.996094 957.9375 C 937.445312 957.742188 938.023438 957.488281 938.535156 957.296875 C 941.738281 955.949219 944.941406 954.539062 948.273438 953.578125 C 952.117188 952.234375 956.023438 951.273438 959.933594 950.3125 C 962.046875 949.925781 964.03125 949.480469 966.210938 949.160156 C 968.132812 948.710938 970.183594 948.453125 972.042969 948.261719 C 976.078125 947.8125 980.179688 947.683594 984.40625 947.683594 C 988.507812 947.683594 992.734375 947.878906 996.964844 948.390625 C 1001.0625 948.902344 1005.355469 949.285156 1009.519531 950.246094 C 1013.683594 951.015625 1017.914062 951.914062 1022.015625 953.257812 C 1023.550781 953.707031 1025.089844 954.15625 1026.625 954.667969 C 1024.128906 956.269531 1022.65625 957.230469 1022.269531 957.421875 C 1022.71875 957.359375 1024.511719 956.78125 1027.585938 955.757812 C 1027.972656 955.628906 1028.421875 955.5 1028.871094 955.308594 C 1032.328125 954.15625 1037.132812 952.683594 1042.835938 950.632812 C 1046.679688 949.160156 1051.230469 947.8125 1056.160156 946.402344 C 1059.429688 945.378906 1062.824219 944.351562 1066.476562 943.199219 C 1075.445312 940.1875 1086.015625 937.753906 1097.164062 934.550781 C 1102.738281 933.011719 1108.761719 931.796875 1114.847656 930.386719 C 1117.859375 929.617188 1121 928.914062 1124.136719 928.144531 C 1127.277344 927.566406 1130.542969 926.925781 1133.746094 926.285156 C 1146.753906 923.59375 1160.527344 921.480469 1174.75 919.625 C 1181.925781 918.984375 1189.164062 917.828125 1196.46875 917.316406 C 1200.183594 917.0625 1203.902344 916.867188 1207.554688 916.546875 C 1211.269531 916.226562 1215.050781 915.972656 1218.765625 915.90625 C 1226.261719 915.714844 1233.886719 915.265625 1241.445312 915.460938 C 1249.070312 915.523438 1256.691406 915.523438 1264.253906 916.035156 C 1268.097656 916.226562 1271.875 916.292969 1275.722656 916.613281 L 1287.125 917.574219 C 1294.75 918.085938 1302.246094 919.238281 1309.675781 920.070312 C 1313.390625 920.519531 1317.109375 921.226562 1320.761719 921.738281 C 1324.414062 922.3125 1328.128906 922.761719 1331.714844 923.53125 C 1338.957031 924.941406 1346.132812 926.285156 1353.113281 927.886719 C 1367.210938 930.898438 1380.597656 934.679688 1393.285156 938.460938 C 1405.96875 942.304688 1417.824219 946.46875 1428.714844 950.566406 C 1439.542969 954.796875 1449.535156 958.703125 1458.121094 962.613281 C 1466.769531 966.585938 1474.328125 970.109375 1480.417969 973.183594 C 1492.71875 979.335938 1499.507812 983.433594 1499.507812 983.433594 C 1499.507812 983.433594 1498.164062 982.023438 1495.40625 979.460938 C 1492.652344 976.964844 1488.679688 973.183594 1483.234375 968.890625 C 1477.789062 964.535156 1471.0625 959.34375 1462.988281 954.027344 C 1454.980469 948.519531 1445.5625 942.753906 1435.054688 936.921875 C 1424.484375 931.21875 1412.761719 925.453125 1400.011719 920.136719 C 1387.199219 914.882812 1373.550781 909.757812 1358.945312 905.65625 C 1344.464844 901.300781 1329.152344 897.90625 1313.519531 895.148438 C 1297.824219 892.652344 1281.679688 890.664062 1265.535156 890.089844 C 1257.460938 889.640625 1249.324219 889.640625 1241.316406 889.703125 C 1233.246094 889.511719 1225.234375 890.410156 1217.292969 890.792969 C 1201.402344 891.945312 1185.898438 894.0625 1171.035156 896.945312 C 1155.851562 899.761719 1141.628906 903.15625 1128.492188 907.320312 Z M 938.085938 764.257812 C 935.394531 772.269531 926.425781 776.6875 917.96875 774.125 C 909.574219 771.5 904.835938 762.914062 907.527344 754.839844 C 910.152344 746.832031 919.1875 742.414062 927.644531 744.976562 C 936.101562 747.601562 940.710938 756.25 938.085938 764.257812 Z M 722.820312 638.878906 C 729.097656 633.175781 736.914062 628.4375 744.859375 625.234375 C 748.316406 623.824219 751.519531 622.03125 755.046875 620.875 C 758.761719 619.722656 762.542969 619.082031 766.386719 618.699219 C 772.792969 618.1875 779.132812 618.632812 785.542969 619.148438 C 797.523438 620.234375 809.4375 622.15625 821.484375 622.605469 C 833.589844 623.183594 845.765625 622.863281 857.746094 620.75 C 858.640625 620.621094 859.539062 620.429688 860.371094 620.300781 C 872.03125 618.441406 881 618.378906 887.792969 619.148438 C 890.226562 619.402344 890.804688 615.945312 888.371094 615.558594 C 883.5 614.726562 877.671875 614.789062 870.238281 615.878906 C 867.035156 616.328125 863.765625 616.648438 860.5625 616.839844 C 849.609375 617.546875 839.039062 616.710938 832.886719 616.070312 C 831.027344 615.878906 830.515625 613.574219 832.117188 612.675781 C 837.691406 609.664062 847.816406 604.730469 861.523438 600.4375 C 866.777344 598.773438 872.609375 597.234375 878.824219 595.953125 C 907.140625 589.996094 932.449219 615.496094 944.429688 634.523438 C 944.75 634.972656 944.75 635.675781 944.554688 636.1875 C 938.726562 648.683594 928.21875 649.449219 915.277344 647.335938 C 896.507812 644.390625 878.117188 639.96875 859.476562 636.765625 C 855.695312 636.125 851.914062 635.484375 848.070312 634.972656 C 845.253906 634.585938 842.433594 634.203125 839.613281 633.882812 C 798.484375 629.398438 755.941406 644.582031 722.433594 666.429688 C 718.976562 668.671875 715.644531 670.914062 712.375 673.410156 C 711.222656 674.308594 709.492188 673.605469 709.300781 672.128906 C 707.636719 659.316406 713.082031 647.59375 722.820312 638.878906 Z M 728.136719 759.390625 C 728.585938 751.574219 735.632812 745.679688 743.707031 746.191406 C 751.839844 746.640625 758.054688 753.367188 757.609375 761.183594 C 757.160156 768.9375 750.113281 774.832031 742.039062 774.316406 C 733.839844 773.871094 727.625 767.144531 728.136719 759.390625 Z M 731.660156 797.703125 C 732.109375 789.949219 739.15625 784.054688 747.292969 784.570312 C 755.429688 785.015625 761.644531 791.746094 761.132812 799.5625 C 760.683594 807.3125 753.699219 813.207031 745.5625 812.695312 C 737.425781 812.246094 731.277344 805.519531 731.660156 797.703125 Z M 750.496094 823.265625 C 758.632812 823.714844 764.847656 830.441406 764.398438 838.257812 C 763.949219 846.007812 756.902344 851.902344 748.832031 851.457031 C 740.695312 850.941406 734.480469 844.28125 734.929688 836.464844 C 735.375 828.648438 742.359375 822.753906 750.496094 823.265625 Z M 754.085938 861.640625 C 762.21875 862.089844 768.433594 868.816406 767.921875 876.632812 C 767.472656 884.386719 760.492188 890.28125 752.355469 889.769531 C 744.21875 889.320312 738.003906 882.59375 738.515625 874.839844 C 738.964844 867.023438 745.949219 861.128906 754.085938 861.640625 Z M 755.621094 931.027344 C 747.484375 930.578125 741.269531 923.851562 741.785156 916.097656 C 741.976562 912.191406 743.898438 908.730469 746.714844 906.359375 C 749.472656 903.992188 753.25 902.644531 757.351562 902.902344 C 759.144531 903.03125 760.9375 903.476562 762.542969 904.183594 C 767.988281 906.554688 771.636719 911.933594 771.253906 917.894531 C 770.742188 925.644531 763.824219 931.539062 755.621094 931.027344 Z M 815.910156 751.574219 C 814.628906 759.96875 806.554688 765.734375 797.777344 764.515625 C 789.066406 763.296875 782.914062 755.546875 784.132812 747.21875 C 785.414062 738.824219 793.484375 733.058594 802.261719 734.277344 C 810.976562 735.492188 817.125 743.246094 815.910156 751.574219 Z M 816.230469 793.347656 C 815.011719 801.738281 806.941406 807.503906 798.164062 806.289062 C 789.449219 805.070312 783.300781 797.320312 784.515625 788.988281 C 785.796875 780.597656 793.871094 774.832031 802.582031 776.046875 C 811.359375 777.265625 817.445312 785.015625 816.230469 793.347656 Z M 784.453125 831.019531 C 785.667969 822.625 793.804688 816.859375 802.519531 818.078125 C 809.4375 819.039062 814.691406 824.097656 815.972656 830.25 C 816.292969 831.914062 816.421875 833.707031 816.164062 835.4375 C 815.78125 838.066406 814.757812 840.371094 813.21875 842.359375 C 809.824219 846.714844 804.121094 849.214844 798.097656 848.378906 C 789.257812 847.164062 783.234375 839.347656 784.453125 831.019531 Z M 816.230469 922.058594 C 815.011719 930.449219 806.941406 936.214844 798.164062 935 C 795.984375 934.679688 794 933.972656 792.269531 933.011719 C 786.824219 929.9375 783.621094 923.980469 784.515625 917.699219 C 785.542969 910.527344 791.5625 905.273438 798.804688 904.695312 C 800.019531 904.566406 801.300781 904.632812 802.582031 904.757812 C 811.359375 905.976562 817.382812 913.730469 816.230469 922.058594 Z M 816.484375 877.144531 C 815.460938 884.320312 809.375 889.574219 802.132812 890.214844 C 800.917969 890.28125 799.699219 890.28125 798.417969 890.089844 C 789.640625 888.871094 783.554688 881.117188 784.773438 872.789062 C 785.988281 864.398438 794.0625 858.632812 802.839844 859.847656 C 804.953125 860.105469 806.941406 860.808594 808.667969 861.769531 C 814.117188 864.84375 817.382812 870.867188 816.484375 877.144531 Z M 861.078125 925.902344 C 861.078125 926.03125 861.011719 926.222656 861.011719 926.351562 C 858.960938 934.550781 850.3125 939.613281 841.726562 937.5625 C 833.144531 935.574219 827.824219 927.246094 829.875 919.046875 C 830.515625 916.484375 831.796875 914.242188 833.527344 912.382812 C 837.308594 908.410156 843.265625 906.425781 849.160156 907.835938 C 857.617188 909.820312 862.871094 917.828125 861.078125 925.902344 Z M 865.691406 881.695312 C 863.640625 889.894531 854.992188 894.957031 846.40625 892.90625 C 837.820312 890.855469 832.503906 882.59375 834.554688 874.390625 C 836.601562 866.191406 845.253906 861.128906 853.835938 863.179688 C 862.421875 865.164062 867.738281 873.496094 865.691406 881.695312 Z M 869.535156 840.117188 C 867.417969 848.378906 858.835938 853.378906 850.25 851.328125 C 841.664062 849.339844 836.28125 841.011719 838.398438 832.8125 C 840.445312 824.609375 849.097656 819.550781 857.679688 821.601562 C 866.265625 823.648438 871.519531 831.914062 869.535156 840.117188 Z M 872.671875 819.804688 C 864.472656 818.332031 827.058594 810.644531 824.816406 791.746094 C 824.429688 788.347656 825.136719 784.632812 827.378906 780.53125 C 827.378906 780.46875 827.441406 780.40625 827.441406 780.339844 C 836.539062 763.425781 845.574219 743.4375 848.648438 727.101562 C 845.765625 726.910156 842.816406 726.714844 839.933594 726.523438 C 795.28125 723.703125 748.316406 724.023438 719.101562 733.121094 C 722.5625 731.714844 764.589844 715.695312 841.34375 720.246094 C 844.035156 720.375 846.789062 720.566406 849.542969 720.757812 C 850.25 713.003906 849.160156 706.535156 845.507812 702.113281 C 844.613281 700.960938 843.457031 699.871094 842.175781 699.039062 C 825.519531 688.210938 744.21875 707.945312 735.761719 709.996094 C 735.3125 710.121094 734.800781 710.058594 734.351562 709.800781 C 731.277344 708.136719 718.015625 700.511719 709.367188 687.058594 C 709.300781 685.777344 709.300781 684.75 709.300781 683.46875 C 709.300781 683.40625 709.300781 683.40625 709.300781 683.40625 C 709.75 682.636719 710.328125 681.933594 711.03125 681.355469 C 713.65625 679.113281 716.667969 676.871094 720.128906 674.566406 C 756.902344 650.15625 803.542969 636.382812 840.445312 639.519531 C 840.574219 639.585938 840.703125 639.585938 840.832031 639.585938 C 846.980469 641.121094 852.875 643.300781 858.515625 645.605469 C 877.605469 653.550781 892.980469 664.058594 899.902344 665.210938 C 912.585938 667.390625 926.875 683.34375 924.503906 698.269531 C 922.324219 711.722656 906.246094 704.484375 903.105469 702.945312 C 902.71875 702.753906 902.464844 702.5 902.273438 702.113281 C 894.585938 686.929688 882.859375 678.792969 872.738281 674.4375 C 870.558594 673.476562 868.957031 676.421875 870.941406 677.640625 C 879.207031 682.636719 888.753906 690.390625 895.671875 701.730469 C 899.132812 707.304688 899.902344 716.210938 899.132812 726.78125 C 917.390625 729.917969 936.996094 734.082031 957.882812 739.785156 C 953.269531 739.015625 929.886719 735.300781 898.683594 731.714844 C 896.632812 749.523438 890.804688 770.921875 885.359375 788.15625 C 869.917969 784.441406 845.636719 774.0625 844.164062 773.421875 C 852.746094 781.238281 871.777344 789.503906 883.4375 794.113281 C 879.527344 806.03125 876.070312 815.257812 874.722656 818.652344 C 874.46875 819.484375 873.570312 819.933594 872.671875 819.804688 Z M 908.613281 932.246094 C 908.613281 932.308594 908.613281 932.308594 908.613281 932.246094 C 906.050781 939.738281 898.042969 944.097656 890.164062 942.496094 C 889.585938 942.367188 889.011719 942.238281 888.496094 942.046875 C 880.105469 939.417969 875.363281 930.835938 878.054688 922.761719 C 880.679688 914.753906 889.714844 910.332031 898.109375 912.894531 C 906.628906 915.523438 911.242188 924.171875 908.613281 932.246094 Z M 916.6875 888.039062 C 913.996094 896.046875 905.027344 900.46875 896.570312 897.839844 C 888.175781 895.214844 883.5 886.628906 886.128906 878.621094 C 888.816406 870.546875 897.789062 866.191406 906.246094 868.753906 C 914.699219 871.378906 919.378906 879.964844 916.6875 888.039062 Z M 923.605469 846.84375 C 920.980469 854.851562 911.945312 859.273438 903.488281 856.707031 C 895.097656 854.082031 890.417969 845.496094 893.109375 837.425781 C 895.738281 829.417969 904.769531 824.996094 913.164062 827.558594 C 921.683594 830.183594 926.296875 838.769531 923.605469 846.84375 Z M 910.984375 815.257812 C 902.59375 812.628906 897.914062 804.046875 900.542969 796.035156 C 903.234375 787.964844 912.203125 783.609375 920.660156 786.171875 C 929.050781 788.796875 933.792969 797.382812 931.101562 805.453125 C 928.476562 813.464844 919.441406 817.882812 910.984375 815.257812 Z M 910.984375 815.257812 " fill-opacity="1" fill-rule="nonzero"/></g><g fill="#5170ff" fill-opacity="1"><g transform="translate(27.480749, 908.65795)"><g><path d="M 27.40625 0 L 2.5625 0 L 2.5625 -3.53125 L 21.25 -30.21875 L 3.71875 -30.21875 L 3.71875 -34.25 L 26.9375 -34.25 L 26.9375 -30.21875 L 8.5 -4.03125 L 27.40625 -4.03125 Z M 27.40625 0 "/></g></g></g><g fill="#5170ff" fill-opacity="1"><g transform="translate(57.416419, 908.65795)"><g><path d="M 27.40625 0 L 2.5625 0 L 2.5625 -3.53125 L 21.25 -30.21875 L 3.71875 -30.21875 L 3.71875 -34.25 L 26.9375 -34.25 L 26.9375 -30.21875 L 8.5 -4.03125 L 27.40625 -4.03125 Z M 27.40625 0 "/></g></g></g><g fill="#5170ff" fill-opacity="1"><g transform="translate(87.352089, 908.65795)"><g><path d="M 27.40625 0 L 2.5625 0 L 2.5625 -3.53125 L 21.25 -30.21875 L 3.71875 -30.21875 L 3.71875 -34.25 L 26.9375 -34.25 L 26.9375 -30.21875 L 8.5 -4.03125 L 27.40625 -4.03125 Z M 27.40625 0 "/></g></g></g></svg>